<svg width="11" height="10" viewBox="0 0 11 10" fill="none" xmlns="http://www.w3.org/2000/svg">
<path d="M9.78278 0.287664C0.95077 0.268791 0.957151 0.277791 0.957151 0.277791C0.709745 0.276885 0.509113 0.466134 0.511653 0.698012L0.513401 1.12286C0.514362 1.35623 0.716557 1.54695 0.963963 1.54786L7.40128 1.57292C7.6011 1.57366 7.70196 1.8029 7.56136 1.93552L0.453934 8.63969C0.280159 8.80361 0.281267 9.07288 0.456397 9.23807L0.774815 9.53842C0.949945 9.70362 1.23541 9.70466 1.40919 9.54075L8.51977 2.8336C8.66037 2.70098 8.90341 2.79611 8.90418 2.9846L8.926 9.05815C8.92696 9.29152 9.12916 9.48225 9.37657 9.48315L9.8238 9.48479C10.0712 9.48569 10.2718 9.29645 10.2709 9.06308L10.2318 0.71116C10.2324 0.479293 10.0302 0.288569 9.78278 0.287664Z" fill="black"/>
</svg>
