<svg width="18" height="19" viewBox="0 0 18 19" fill="none" xmlns="http://www.w3.org/2000/svg">
<path d="M17.4658 8.6582C17.4658 9.33854 17.387 10.0046 17.2295 10.6562C17.0791 11.3008 16.8464 11.8844 16.5312 12.4072C16.2161 12.9229 15.8223 13.3346 15.3496 13.6426C14.8841 13.9505 14.3327 14.1045 13.6953 14.1045C13.0293 14.1045 12.4993 13.9111 12.1055 13.5244C11.7116 13.1377 11.4753 12.6794 11.3965 12.1494H11.2998C11.0277 12.7152 10.6266 13.1842 10.0967 13.5566C9.57389 13.9219 8.92936 14.1045 8.16309 14.1045C7.0459 14.1045 6.18294 13.7357 5.57422 12.998C4.97266 12.2533 4.67188 11.265 4.67188 10.0332C4.67188 9.07357 4.86165 8.22493 5.24121 7.4873C5.62793 6.74251 6.16862 6.15885 6.86328 5.73633C7.5651 5.30664 8.39225 5.0918 9.34473 5.0918C9.9821 5.0918 10.6016 5.14551 11.2031 5.25293C11.8047 5.36035 12.2845 5.47852 12.6426 5.60742L12.4277 9.93652C12.4206 10.2015 12.4134 10.4056 12.4062 10.5488C12.3991 10.6849 12.3955 10.7923 12.3955 10.8711C12.3955 11.6445 12.5316 12.1673 12.8037 12.4395C13.083 12.7044 13.4196 12.8369 13.8135 12.8369C14.2933 12.8369 14.6943 12.6507 15.0166 12.2783C15.346 11.8988 15.5967 11.3939 15.7686 10.7637C15.9404 10.1263 16.0264 9.4209 16.0264 8.64746C16.0264 7.27962 15.7507 6.1123 15.1992 5.14551C14.6478 4.17871 13.8851 3.44108 12.9111 2.93262C11.9443 2.42415 10.8307 2.16992 9.57031 2.16992C8.31706 2.16992 7.20345 2.36686 6.22949 2.76074C5.2627 3.15462 4.44271 3.71322 3.76953 4.43652C3.10352 5.15267 2.59863 6.00488 2.25488 6.99316C1.91113 7.98145 1.73926 9.07357 1.73926 10.2695C1.73926 11.7305 1.99707 12.973 2.5127 13.9971C3.03548 15.0212 3.79818 15.8018 4.80078 16.3389C5.81055 16.8688 7.03874 17.1338 8.48535 17.1338C9.35905 17.1338 10.2005 17.0371 11.0098 16.8438C11.819 16.6504 12.5423 16.432 13.1797 16.1885V17.585C12.5495 17.8499 11.8441 18.0648 11.0635 18.2295C10.2829 18.4014 9.4235 18.4873 8.48535 18.4873C6.75944 18.4873 5.28418 18.1615 4.05957 17.5098C2.83496 16.8652 1.89681 15.9342 1.24512 14.7168C0.593424 13.4993 0.267578 12.0384 0.267578 10.334C0.267578 8.95182 0.478841 7.68066 0.901367 6.52051C1.33105 5.36035 1.94694 4.35417 2.74902 3.50195C3.55827 2.64974 4.53581 1.99089 5.68164 1.52539C6.83464 1.05273 8.13086 0.816406 9.57031 0.816406C11.11 0.816406 12.4707 1.13509 13.6523 1.77246C14.8411 2.40267 15.7721 3.30501 16.4453 4.47949C17.1257 5.64681 17.4658 7.03971 17.4658 8.6582ZM6.27246 10.0762C6.27246 11.0286 6.46224 11.7269 6.8418 12.1709C7.22135 12.6149 7.74772 12.8369 8.4209 12.8369C9.25163 12.8369 9.86035 12.5254 10.2471 11.9023C10.641 11.2793 10.8665 10.4557 10.9238 9.43164L11.0527 6.62793C10.8451 6.56348 10.5908 6.50977 10.29 6.4668C9.99642 6.41667 9.68848 6.3916 9.36621 6.3916C8.62858 6.3916 8.0306 6.56706 7.57227 6.91797C7.12109 7.26888 6.79167 7.72363 6.58398 8.28223C6.3763 8.84082 6.27246 9.4388 6.27246 10.0762Z" fill="black"/>
</svg>
