<svg width="20" height="19" viewBox="0 0 20 19" fill="none" xmlns="http://www.w3.org/2000/svg">
<path d="M18.4809 12.9867L16.8309 11.3367C16.3391 10.8488 15.6752 10.5737 14.9824 10.5708C14.2896 10.5678 13.6234 10.8372 13.1274 11.3209C12.8628 11.5871 12.5136 11.7527 12.1401 11.7893C11.7665 11.8258 11.3919 11.731 11.0807 11.5212C9.85231 10.7014 8.79706 9.64821 7.97491 8.42145C7.76878 8.10676 7.67742 7.73064 7.71622 7.35646C7.75502 6.98227 7.9216 6.6329 8.18791 6.3672C8.66723 5.87075 8.93318 5.2064 8.92884 4.51633C8.92449 3.82627 8.6502 3.16532 8.16466 2.67495L6.51466 1.02495C6.02067 0.532652 5.3517 0.256226 4.65429 0.256226C3.95688 0.256226 3.2879 0.532652 2.79391 1.02495L2.31916 1.50045C-0.155838 3.97545 0.0294113 9.17895 5.17891 14.3254C8.28391 17.4312 11.4092 18.7317 13.9434 18.7317C14.6894 18.7565 15.4329 18.6327 16.1305 18.3673C16.8282 18.1019 17.466 17.7003 18.0069 17.1859L18.4824 16.7104C18.9756 16.2162 19.2525 15.5465 19.2522 14.8483C19.2519 14.1501 18.9745 13.4805 18.4809 12.9867ZM17.4204 15.6499L16.9449 16.1254C14.9949 18.0754 10.6907 17.7192 6.23791 13.2657C1.78516 8.8122 1.42816 4.50495 3.37816 2.55495L3.84991 2.0802C4.06232 1.86856 4.34994 1.74973 4.64979 1.74973C4.94963 1.74973 5.23726 1.86856 5.44966 2.0802L7.09966 3.7302C7.30821 3.93979 7.42658 4.22259 7.42953 4.51824C7.43247 4.8139 7.31975 5.09899 7.11541 5.3127C6.60862 5.82272 6.29249 6.49141 6.21999 7.20675C6.14748 7.92208 6.32301 8.64061 6.71716 9.24195C7.65132 10.6399 8.8526 11.8394 10.2519 12.7714C10.8514 13.1657 11.5681 13.3422 12.2821 13.2716C12.9962 13.2011 13.6644 12.8876 14.1752 12.3837C14.3885 12.1769 14.6744 12.0621 14.9714 12.064C15.2685 12.0658 15.5529 12.1841 15.7637 12.3934L17.4137 14.0434C17.52 14.1483 17.6046 14.2731 17.6625 14.4107C17.7204 14.5483 17.7506 14.696 17.7512 14.8453C17.7518 14.9946 17.7229 15.1426 17.6662 15.2807C17.6094 15.4187 17.5259 15.5443 17.4204 15.6499Z" fill="black"/>
</svg>
